<?xml version="1.0" standalone="no"?>
<!DOCTYPE svg PUBLIC "-//W3C//DTD SVG 20010904//EN"
 "http://www.w3.org/TR/2001/REC-SVG-20010904/DTD/svg10.dtd">
<svg version="1.0" xmlns="http://www.w3.org/2000/svg"
 width="301.000000pt" height="301.000000pt" viewBox="0 0 301.000000 301.000000"
 preserveAspectRatio="xMidYMid meet">
<metadata>
Created by potrace 1.11, written by Peter Selinger 2001-2013
</metadata>
<g transform="translate(0.000000,301.000000) scale(0.100000,-0.100000)"
fill="#000000" stroke="none">
<path d="M779 2413 c-11 -26 -78 -187 -149 -358 -405 -979 -613 -1481 -617
-1488 -2 -4 44 -6 102 -5 l107 3 118 295 c64 162 172 435 240 605 268 678 297
751 304 770 9 22 5 28 47 -70 9 -22 99 -247 199 -500 100 -253 186 -469 190
-480 5 -11 22 -54 38 -95 16 -41 32 -82 35 -90 3 -8 44 -109 90 -225 l84 -210
106 -3 107 -3 -21 53 c-27 70 -382 934 -420 1023 -16 39 -98 239 -183 445
l-153 375 -102 3 -101 3 -21 -48z"/>
<path d="M1780 2377 l0 -84 280 0 c153 -1 309 -4 345 -8 228 -23 349 -137 349
-330 0 -92 -13 -137 -55 -195 -73 -101 -213 -147 -446 -149 l-83 -1 19 -32
c10 -18 85 -148 166 -288 81 -140 208 -362 283 -492 l137 -237 116 -3 117 -3
-26 45 c-14 25 -37 62 -49 83 -13 21 -33 55 -45 75 -25 45 -189 324 -307 522
-47 79 -89 151 -92 159 -4 12 10 19 65 33 101 26 187 72 248 133 54 53 110
146 122 200 3 17 9 41 11 55 11 51 5 187 -10 244 -48 184 -173 288 -410 342
-16 4 -189 9 -382 11 l-353 5 0 -85z"/>
</g>
</svg>
